<?xml version="1.0" encoding="UTF-8" standalone="no"?>
<svg width="200px" height="82px" viewBox="0 0 200 82" version="1.1" xmlns="http://www.w3.org/2000/svg" xmlns:xlink="http://www.w3.org/1999/xlink">
    <!-- Generator: Sketch 3.8.3 (29802) - http://www.bohemiancoding.com/sketch -->
    <title>Artboard</title>
    <desc>Created with Sketch.</desc>
    <defs></defs>
    <g id="Page-1" stroke="none" stroke-width="1" fill="none" fill-rule="evenodd">
        <g id="Artboard" fill="#000000">
            <g id="Group">
                <g id="logo-black">
                    <g id="test-tube_1_" transform="translate(154.117647, 0.000000)">
                        <path d="M9.78823529,80.9176471 L9.78823529,80.9176471 C8.61176471,80.9176471 7.45882353,80.7058824 6.35294118,80.2823529 C1.71764706,78.5176471 -0.729411765,73.4823529 0.541176471,68.8235294 L0.494117647,68.8 L0.8,68 L24.3529412,6.82352941 C24.7058824,5.92941176 24.5411765,3.76470588 24.3764706,2.56470588 C24.3294118,2.28235294 24.3294118,2.02352941 24.4,1.76470588 L24.4235294,1.71764706 C24.4470588,1.67058824 24.4470588,1.62352941 24.4705882,1.57647059 C24.8470588,0.588235294 26,0.0941176471 27.8823529,0.0941176471 C30.1411765,0.0941176471 33.2705882,0.8 36.4705882,2.02352941 C39.1529412,3.05882353 41.6,4.35294118 43.3176471,5.64705882 C45.3411765,7.17647059 46.1411765,8.54117647 45.6941176,9.71764706 C45.6705882,9.76470588 45.6470588,9.81176471 45.6235294,9.85882353 L45.6,9.90588235 C45.4823529,10.1411765 45.3176471,10.3294118 45.1058824,10.4941176 C44.0705882,11.4117647 42.5411765,12.9647059 42.2823529,13.6705882 L18.4470588,75.6941176 L18.4,75.6705882 C16.7294118,78.8705882 13.4588235,80.9176471 9.78823529,80.9176471 L9.78823529,80.9176471 Z M2.42352941,68.4 L2.35294118,68.5647059 C0.847058824,72.6117647 2.89411765,77.1764706 6.94117647,78.7294118 C7.85882353,79.0823529 8.8,79.2470588 9.76470588,79.2470588 C13.0352941,79.2470588 15.9294118,77.2941176 17.1294118,74.2352941 L17.2235294,74.0235294 L40.6588235,13.1058824 C41.1529412,11.7882353 43.4823529,9.69411765 43.9529412,9.27058824 L44,9.22352941 C44.0470588,9.2 44.0705882,9.17647059 44.0705882,9.15294118 L44.0941176,9.12941176 C44.1176471,8.96470588 43.9058824,8.23529412 42.2588235,6.96470588 C40.6823529,5.76470588 38.4,4.56470588 35.8352941,3.57647059 C32.8705882,2.42352941 29.8588235,1.74117647 27.8352941,1.74117647 C26.4941176,1.74117647 26.0470588,2.02352941 25.9764706,2.16470588 L25.9764706,2.18823529 L25.9764706,2.28235294 L25.9764706,2.30588235 C26.0235294,2.65882353 26.4705882,5.78823529 25.8588235,7.41176471 L2.42352941,68.4 L2.42352941,68.4 Z" id="tube_1_"></path>
                        <path d="M32.5647059,29.6470588 C32.5647059,29.6470588 29.3176471,33.3882353 26.3529412,34.7294118 C23.3882353,36.0705882 21.2,35.7176471 18.5411765,37.2705882 C15.8823529,38.8235294 14.5411765,40.9882353 14.5411765,40.9882353 L3.71764706,69.1529412 C2.54117647,72.3294118 4.28235294,76.0470588 7.50588235,77.2941176 C10.7294118,78.5411765 14.3764706,76.8941176 15.6235294,73.7411765 L15.6235294,73.7411765 L32.5647059,29.6470588 L32.5647059,29.6470588 Z M21.6705882,45.9058824 C22.1882353,45.6705882 22.8,45.9058824 23.0117647,46.4235294 C23.2470588,46.9411765 23.0117647,47.5529412 22.4941176,47.7647059 C21.9764706,48 21.3647059,47.7647059 21.1529412,47.2470588 C20.8941176,46.7294118 21.1529412,46.1176471 21.6705882,45.9058824 L21.6705882,45.9058824 Z M17.3176471,41.2705882 C17.6705882,41.1294118 18.0705882,41.2705882 18.2117647,41.6235294 C18.3529412,41.9764706 18.2117647,42.3764706 17.8588235,42.5176471 C17.5058824,42.6588235 17.1058824,42.5176471 16.9647059,42.1647059 C16.8235294,41.8117647 16.9882353,41.4117647 17.3176471,41.2705882 L17.3176471,41.2705882 Z M12.5411765,57.2 C12.0235294,57.4352941 11.4117647,57.2 11.2,56.6823529 C10.9647059,56.1647059 11.2,55.5529412 11.7176471,55.3411765 C12.2352941,55.1058824 12.8470588,55.3411765 13.0588235,55.8588235 C13.3176471,56.3764706 13.0823529,56.9647059 12.5411765,57.2 L12.5411765,57.2 Z M13.5058824,53.5058824 C13.0823529,52.5411765 13.5058824,51.4117647 14.4705882,50.9647059 C15.4352941,50.5411765 16.5647059,50.9647059 17.0117647,51.9294118 C17.4352941,52.8941176 17.0117647,54.0235294 16.0470588,54.4705882 C15.0588235,54.8941176 13.9294118,54.4705882 13.5058824,53.5058824 L13.5058824,53.5058824 Z M15.9529412,63.2705882 C16.3058824,63.1294118 16.7058824,63.2705882 16.8470588,63.6235294 C16.9882353,63.9764706 16.8470588,64.3764706 16.4941176,64.5176471 C16.1411765,64.6588235 15.7411765,64.5176471 15.6,64.1647059 C15.4588235,63.8352941 15.6,63.4352941 15.9529412,63.2705882 L15.9529412,63.2705882 Z" id="liquid_1_"></path>
                        <ellipse id="top_1_" transform="translate(34.765932, 6.289002) rotate(-68.960432) translate(-34.765932, -6.289002) " cx="34.7659318" cy="6.28900235" rx="1.71758685" ry="6.54094717"></ellipse>
                    </g>
                    <path d="M45.5294118,37.4588235 C46.5647059,38.2823529 48.4470588,37.8117647 49.7176471,36.4235294 C51.0352941,34.9647059 51.2470588,33.1058824 50.2117647,32.2588235 C49.1764706,31.4352941 47.2941176,31.9058824 46.0235294,33.3647059 C44.6823529,34.8470588 44.4470588,36.6352941 45.5294118,37.4588235 L45.5294118,37.4588235 Z M42.4470588,40.1647059 C42.1647059,40.1647059 41.6941176,40.6588235 42.0941176,40.8470588 C42.6588235,41.0588235 42.9176471,41.5294118 42.9176471,42.2352941 C42.4235294,45.0823529 38.8941176,48.3529412 37.4823529,49.4588235 C37.1294118,49.8117647 37.6235294,50.5647059 37.9764706,50.2823529 C38.7294118,49.6705882 40.3294118,48.4235294 41.6470588,46.7529412 C39.5058824,51.5529412 35.3176471,57.7176471 33.7176471,59.8823529 C27.4588235,68.5647059 17.9529412,76.5411765 11.4117647,76.5411765 C6.18823529,76.5411765 1.76470588,73.0117647 0.8,67.7882353 C0.729411765,67.2235294 -0.0235294118,67.1058824 0.117647059,67.8588235 C1.29411765,75.0117647 6.8,77.7647059 13.4588235,77.7647059 C20.7529412,77.7647059 29.3176471,72.4705882 34.0235294,67.0823529 C41.6470588,58.3294118 46.6117647,48.2823529 45.2705882,42.5882353 C44.7529412,40.4470588 43.2705882,40.0941176 42.4470588,40.1647059 L42.4470588,40.1647059 Z M89.3176471,59.2 C91.3176471,58.7058824 92.9882353,57.6 92.9882353,55.8588235 C92.9882353,55.6941176 92.6352941,55.6941176 92.6352941,55.8588235 C92.6352941,56.8941176 91.4588235,57.7411765 90.1411765,57.9529412 C87.0352941,58.4470588 80.8470588,54.7764706 77.9294118,51.0117647 C81.0352941,52.1882353 87.4352941,50.4705882 90.4470588,48.3294118 C93.2235294,46.3294118 94.3294118,44.0941176 94.5647059,42.2823529 C94.9176471,39.3176471 91.6470588,37.5529412 87.1294118,39.3176471 C84.2117647,40.4941176 80.7294118,43.0588235 77.1294118,47.8588235 C80.9411765,41.5294118 88.4470588,31.2705882 95.8117647,24.6823529 C104.776471,16.7058824 109.976471,18.2352941 101.929412,26.6823529 C98.6117647,30.1411765 92.3529412,34.6588235 88.0235294,36.6117647 C86.7058824,37.1764706 87.3411765,37.9294118 88.3058824,37.5058824 C92.8941176,35.5058824 98.9882353,31.3176471 102.682353,27.8588235 C113.576471,17.3882353 104.494118,9.48235294 92.4,20.5647059 C84.2117647,28.1411765 78.8470588,36.0470588 74.2117647,46.3058824 C72.6117647,48.2352941 71.4352941,49.8352941 69.9529412,51.1058824 C69.7882353,51.2470588 69.6470588,51.4117647 69.5294118,51.5529412 C65.5294118,54.9882353 59.2235294,59.6235294 55.2941176,59.6941176 C52.5176471,59.7647059 51.3411765,57.6941176 51.8352941,54.9647059 C52.5882353,50.7294118 56.9882353,45.7411765 60.7294118,44 C65.6,41.7882353 68.4470588,46.0705882 62.0470588,49.5529412 C59.6235294,50.8 56.6823529,51.4823529 55.5058824,51.4823529 C54.1176471,51.4823529 54.2588235,52.0470588 55.4352941,52.0941176 C57.3647059,52.1647059 60.5176471,51.3411765 62.5882353,50.3529412 C69.1294118,47.2470588 69.5294118,41.4117647 62.4470588,41.2 C54.7294118,40.9176471 45.5058824,47.5294118 45.5764706,55.7882353 C45.6470588,59.5294118 48.6352941,61.5529412 52.7294118,61.5529412 C59.5529412,61.4823529 65.6470588,56.2823529 70.6117647,51.7411765 C71.3176471,51.1529412 72.0235294,50.4941176 72.7058824,49.8117647 C70.9647059,54.2588235 70.0705882,58.3529412 70.4941176,61.3882353 C70.7764706,63.6 72.0235294,64.6352941 72.9882353,65.4823529 C73.2,65.6235294 73.6,65.4823529 73.3411765,65.0588235 C71.8823529,63.3176471 72.3058824,58.1647059 74.3058824,53.2 C75.9764706,56.4941176 82.4941176,60.7294118 89.3176471,59.2 L89.3176471,59.2 Z M81.1294118,44.7294118 C89.1058824,37.5764706 92.2352941,43.9764706 87.1764706,47.8352941 C84.5411765,49.8352941 79.3176471,51.3647059 77.6705882,50.4 L77.3176471,50.1882353 C77.1058824,49.8352941 76.8941176,49.5058824 76.7529412,49.1529412 C78.0705882,47.5529412 79.6,46.1176471 81.1294118,44.7294118 L81.1294118,44.7294118 Z M125.435294,36.6352941 C128.611765,36.9882353 127.294118,33.1058824 124.047059,34.0705882 C122.588235,34.4941176 121.2,37.2470588 120.164706,39.6941176 C116.988235,44.4941176 111.623529,50.9882353 107.858824,54.4 C104.541176,57.2470588 101.458824,58 105.223529,52.6588235 C106.752941,50.5176471 108.682353,48.2117647 109.811765,45.9294118 C112.447059,40.1647059 106.823529,37.6 102.305882,41.0588235 C99.6705882,43.0588235 96.1176471,47.2470588 93.3411765,49.5294118 C92.5882353,50.1411765 92.7764706,51.0588235 93.5529412,50.4235294 C95.7647059,48.6352941 99.6705882,44.5176471 102.988235,42.0941176 C105.764706,39.9529412 106.870588,41.3411765 105.270588,43.1294118 C103.058824,45.6941176 99.1529412,50.1411765 98.1882353,52.9882353 C96.8,57.2235294 98.4705882,59.1058824 101.223529,59.1058824 C105.035294,59.1058824 110.729412,53.1294118 114.564706,48.4235294 C115.811765,46.8235294 117.2,44.9647059 118.376471,43.1529412 C115.058824,49.6 111.576471,56.1411765 107.270588,62.0235294 C101.152941,70.3529412 93.5058824,76.6117647 86.2823529,76.6117647 C81.0588235,76.6117647 76.5647059,73.0823529 75.6,67.8588235 C75.5294118,67.2941176 74.8470588,67.1764706 74.9176471,67.9294118 C76.0941176,75.0823529 81.6,77.8352941 88.2588235,77.8352941 C95.5529412,77.8352941 102.564706,73.6 107.482353,68.4 C117.411765,57.9058824 118.611765,46.1176471 121.647059,39.5294118 C123.082353,36.6352941 124.4,36.4941176 125.435294,36.6352941 L125.435294,36.6352941 Z M165.811765,26.4941176 C167.270588,24 167.2,22.0470588 163.811765,22.0470588 C161.247059,22.1176471 156.588235,23.9058824 154.447059,25.5764706 C153.952941,26.0705882 154.164706,26.3294118 154.8,26.0705882 C155.223529,25.9294118 155.694118,25.6470588 156.188235,25.4588235 C158.611765,24.1411765 157.647059,26.9176471 157.082353,27.9529412 C154.164706,33.0352941 149.035294,40.1647059 146.329412,43.7176471 C145.035294,45.4588235 143.576471,47.2 142.141176,48.6823529 C139.529412,51.1529412 134.376471,55.5529412 130.494118,57.0117647 C117.835294,61.7411765 133.952941,40.2117647 135.294118,38.4941176 C138.282353,34.7529412 144.941176,28.2352941 146.941176,24.9647059 C148.4,22.4705882 148.329412,20.5176471 144.941176,20.5176471 C142.376471,20.5882353 137.717647,22.3764706 135.576471,24.0470588 C135.082353,24.5411765 135.294118,24.8 135.929412,24.5411765 C136.352941,24.4 136.823529,24.1176471 137.317647,23.9294118 C139.741176,22.6117647 138.776471,25.3882353 138.211765,26.4235294 C135.294118,31.5058824 130.164706,38.6352941 127.458824,42.1882353 C125.247059,45.1529412 122.517647,48.1647059 120.447059,49.8117647 C119.623529,50.4941176 120.094118,51.1294118 120.941176,50.5647059 C121.694118,50.0705882 122.8,48.9647059 124.047059,47.6470588 C121.764706,52.2352941 119.858824,58.6823529 125.905882,59.4352941 C131.058824,60.1411765 137.176471,54.8705882 141.129412,50.9882353 C141.552941,50.5647059 142.047059,50.0941176 142.541176,49.5764706 C142.658824,49.4588235 142.776471,49.3411765 142.894118,49.2235294 C140.611765,53.8117647 138.729412,60.2352941 144.776471,60.9882353 C151.388235,61.8823529 159.576471,53.0117647 162.752941,49.7647059 C163.364706,49.1529412 163.176471,48.0941176 162.141176,49.1529412 C160.282353,51.0823529 153.952941,56.8470588 149.341176,58.5882353 C136.682353,63.3176471 152.8,41.7882353 154.141176,40.0705882 C157.129412,36.3058824 163.811765,29.7882353 165.811765,26.4941176 L165.811765,26.4941176 Z" id="jekyll-text"></path>
                </g>
            </g>
        </g>
    </g>
</svg>